<svg width="186" height="41" viewBox="0 0 186 41" fill="none" xmlns="http://www.w3.org/2000/svg">
<path d="M181.502 0L186 0.94224L182.322 18.2976L177.809 17.3402L181.502 0Z" fill="#FF620F"/>
<path d="M181.912 21.261C183.584 21.261 184.936 22.5376 184.936 24.2398C184.936 25.9419 183.568 27.2185 181.912 27.2185C180.255 27.2185 178.903 25.9419 178.903 24.2398C178.903 22.5376 180.24 21.261 181.912 21.261Z" fill="#FF620F"/>
<path d="M0 31.0441V38.599H4.69917V37.7986H0.87784V35.134H3.53727V34.3336H0.87784V31.8445H4.69917V31.0441H0Z" fill="black"/>
<path d="M8.26059 32.8618C7.48085 32.8618 6.89732 33.1872 6.61844 33.8017H6.48933V32.9651H5.62183V38.599H6.48933V35.2631C6.48933 34.2096 7.1658 33.6726 8.04888 33.6726C8.88546 33.6726 9.39665 34.1373 9.39665 35.1598V38.599H10.2642V35.1598C10.2642 33.4763 9.31921 32.8618 8.26059 32.8618Z" fill="black"/>
<path d="M14.9996 36.3785V33.7397H16.5797V32.9651H14.9996V31.1629H14.1321V32.3816C14.1321 32.7534 13.9255 32.9651 13.5537 32.9651H13.156V33.7397H14.1321V36.5541C14.1321 37.8863 14.7879 38.599 16.0118 38.599H16.6056V37.8244H16.0118C15.2578 37.8244 14.9996 37.4526 14.9996 36.3785Z" fill="black"/>
<path d="M18.2995 30.9515C17.9717 30.9515 17.7151 31.2081 17.7151 31.5359C17.7151 31.8495 17.9717 32.1203 18.2995 32.1203C18.6226 32.1203 18.8696 31.8495 18.8696 31.5359C18.8696 31.2081 18.6226 30.9515 18.2995 30.9515Z" fill="black"/>
<path d="M17.8655 39.0121C17.8655 39.6628 17.6797 39.8848 17.06 39.8848H16.8998V40.6336H17.1839C18.3665 40.6336 18.7228 40.0966 18.7228 39.038V32.9651H17.8655V39.0121Z" fill="black"/>
<path d="M21.3463 32.1203C21.6694 32.1203 21.9164 31.8495 21.9164 31.5359C21.9164 31.2081 21.6694 30.9515 21.3463 30.9515C21.0185 30.9515 20.7619 31.2081 20.7619 31.5359C20.7619 31.8495 21.0184 32.1203 21.3463 32.1203Z" fill="black"/>
<path d="M22.3066 32.8618C20.9846 32.8618 20.2358 33.6055 20.1997 34.473H21.0621C21.0931 33.9617 21.6146 33.6261 22.3066 33.6261C22.9985 33.6261 23.644 33.9617 23.644 34.9171V35.2243L22.0484 35.3973C20.6644 35.5522 19.9311 36.1047 19.9311 37.1272C19.9311 38.0722 20.6179 38.7022 21.6972 38.7022C22.6061 38.7022 23.1534 38.32 23.453 37.7623H23.644V38.5989H24.5064V35.1029C24.5064 33.466 23.5511 32.8618 22.3066 32.8618ZM21.8831 37.9535C21.2686 37.9535 20.8038 37.654 20.8038 37.055C20.8038 36.4508 21.2479 36.1358 22.1981 36.0222L23.644 35.8545V36.0687C23.644 37.2202 22.8591 37.9535 21.8831 37.9535Z" fill="black"/>
<path d="M23.2879 32.1203C23.611 32.1203 23.858 31.8495 23.858 31.5359C23.858 31.2081 23.611 30.9515 23.2879 30.9515C22.9601 30.9515 22.7036 31.2081 22.7036 31.5359C22.7036 31.8495 22.9601 32.1203 23.2879 32.1203Z" fill="black"/>
<path d="M28.3845 32.8618C27.6048 32.8618 27.0212 33.1872 26.7424 33.8017H26.6132V32.9651H25.7457V38.599H26.6132V35.2631C26.6132 34.2096 27.2897 33.6726 28.1727 33.6726C29.0093 33.6726 29.5205 34.1373 29.5205 35.1598V38.599H30.3881V35.1598C30.3881 33.4763 29.4431 32.8618 28.3845 32.8618Z" fill="black"/>
<path d="M33.7958 35.4284L33.424 35.3458C32.6339 35.1651 32.2517 34.8758 32.2517 34.4524C32.2517 33.9515 32.7372 33.6313 33.4962 33.6313C34.1934 33.6313 34.591 33.9051 34.6891 34.4524H35.5721C35.4792 33.4661 34.6891 32.8619 33.4962 32.8619C32.2362 32.8619 31.4048 33.5177 31.4048 34.5093C31.4048 35.2993 32.0142 35.8364 33.1916 36.0997L33.5634 36.1823C34.4568 36.3837 34.8286 36.6574 34.8286 37.1119C34.8286 37.6282 34.3276 37.9381 33.4963 37.9381C32.7011 37.9381 32.1846 37.5921 32.1124 37.0086H31.2396C31.3481 38.0672 32.2001 38.7023 33.4963 38.7023C34.8337 38.7023 35.6807 38.0517 35.6807 37.0189C35.6807 36.1823 35.1487 35.733 33.7958 35.4284Z" fill="black"/>
<path d="M37.9625 36.3785V33.7397H39.5426V32.9651H37.9625V31.1629H37.0949V32.3816C37.0949 32.7534 36.8883 32.9651 36.5165 32.9651H36.1189V33.7397H37.0949V36.5541C37.0949 37.8863 37.7507 38.599 38.9746 38.599H39.5684V37.8244H38.9746C38.2207 37.8244 37.9625 37.4526 37.9625 36.3785Z" fill="black"/>
<path d="M43.1987 32.3919V32.9651H42.2279V33.7397H43.1987V38.599H44.0663V33.7397H45.6568V32.9651H44.0663V32.4229C44.0663 31.7878 44.3555 31.4727 44.97 31.4727H45.6826V30.6982H44.9236C43.7306 30.6981 43.1987 31.3385 43.1987 32.3919Z" fill="black"/>
<path d="M47.5657 33.719H47.4366V32.9651H46.569V38.599H47.4366V35.2269C47.4366 34.1012 47.8704 33.6623 48.8774 33.6623H49.3577V32.8618H48.9136C48.1596 32.8618 47.7619 33.2646 47.5657 33.719Z" fill="black"/>
<path d="M52.0592 32.8618C50.7372 32.8618 49.9884 33.6055 49.9523 34.473H50.8147C50.8457 33.9617 51.3672 33.6261 52.0592 33.6261C52.7511 33.6261 53.3966 33.9617 53.3966 34.9171V35.2243L51.801 35.3973C50.417 35.5522 49.6837 36.1047 49.6837 37.1272C49.6837 38.0722 50.3705 38.7022 51.4498 38.7022C52.3586 38.7022 52.906 38.32 53.2056 37.7623H53.3966V38.5989H54.259V35.1029C54.259 33.466 53.3037 32.8618 52.0592 32.8618ZM51.6357 37.9535C51.0211 37.9535 50.5564 37.654 50.5564 37.055C50.5564 36.4508 51.0005 36.1358 51.9507 36.0222L53.3966 35.8545V36.0687C53.3966 37.2202 52.6117 37.9535 51.6357 37.9535Z" fill="black"/>
<path d="M52.0644 32.459C52.7512 32.459 53.2263 31.9374 53.2263 31.3333C53.2263 30.7136 52.7512 30.2024 52.0644 30.2024C51.3776 30.2024 50.9025 30.7137 50.9025 31.3333C50.9025 31.9375 51.3776 32.459 52.0644 32.459ZM52.0644 30.786C52.3535 30.786 52.6117 31.039 52.6117 31.3333C52.6117 31.6225 52.3535 31.8755 52.0644 31.8755C51.7494 31.8755 51.517 31.6225 51.517 31.3333C51.517 31.0389 51.7494 30.786 52.0644 30.786Z" fill="black"/>
<path d="M58.1802 32.8618C57.4004 32.8618 56.817 33.1872 56.5381 33.8017H56.409V32.9651H55.5414V38.599H56.409V35.2631C56.409 34.2096 57.0854 33.6726 57.9684 33.6726C58.805 33.6726 59.3162 34.1373 59.3162 35.1598V38.599H60.1837V35.1598C60.1838 33.4763 59.2388 32.8618 58.1802 32.8618Z" fill="black"/>
<path d="M66.6388 34.5349L65.606 34.22C65.0173 34.0444 64.4183 33.6364 64.4183 32.96C64.4183 32.2577 65.0689 31.7671 65.9984 31.7671C66.8763 31.7671 67.5218 32.1905 67.5941 32.9186H68.5701C68.4978 31.7361 67.403 30.9408 65.9984 30.9408C64.568 30.9408 63.4888 31.7929 63.4888 33.0322C63.4888 34.034 64.1756 34.6744 65.3736 35.041L66.4064 35.356C67.0777 35.5574 67.7336 35.8311 67.7336 36.5953C67.7336 37.4009 67.0313 37.876 66.0192 37.876C64.9451 37.876 64.2686 37.3338 64.2221 36.5643H63.2565C63.3752 37.8914 64.4545 38.7022 66.0192 38.7022C67.5581 38.7022 68.6631 37.8553 68.6631 36.554C68.663 35.3405 67.7128 34.8654 66.6388 34.5349Z" fill="black"/>
<path d="M73.2801 34.7622V34.602C74.2096 34.2974 74.5608 33.6725 74.5608 33.0116C74.5608 31.86 73.7139 31.0441 72.1079 31.0441H69.717V38.599H72.3661C74.0495 38.599 74.9067 37.7056 74.9067 36.4714C74.9067 35.5987 74.3748 34.9016 73.2801 34.7622ZM70.5948 31.8445H72.1905C73.1974 31.8445 73.6571 32.366 73.6571 33.0116C73.6571 33.7604 73.2233 34.3181 72.0511 34.3181H70.5948V31.8445ZM72.4126 37.7986H70.5948V35.1185H72.49C73.5331 35.1185 74.0031 35.6555 74.0031 36.4714C74.0031 37.1995 73.4866 37.7986 72.4126 37.7986Z" fill="black"/>
<path d="M77.8969 31.0441L75.1807 38.599H76.1257L76.8975 36.4301H80.1838L80.9386 38.599H81.8939L79.2293 31.0441H77.8969ZM77.1823 35.6297L78.465 32.0253H78.6509L79.9052 35.6297H77.1823Z" fill="black"/>
<path d="M86.1001 34.7622V34.602C87.0296 34.2974 87.3808 33.6725 87.3808 33.0116C87.3808 31.86 86.5339 31.0441 84.9279 31.0441H82.5369V38.599H85.186C86.8694 38.599 87.7267 37.7056 87.7267 36.4714C87.7268 35.5987 87.1949 34.9016 86.1001 34.7622ZM83.4149 31.8445H85.0106C86.0176 31.8445 86.4772 32.366 86.4772 33.0116C86.4772 33.7604 86.0434 34.3181 84.8712 34.3181H83.4149V31.8445ZM85.2326 37.7986H83.4148V35.1185H85.31C86.3532 35.1185 86.8231 35.6555 86.8231 36.4714C86.8232 37.1995 86.3067 37.7986 85.2326 37.7986Z" fill="black"/>
<path d="M9.24 8.08089C6.73242 8.08089 5.09112 9.2815 4.27043 10.6949H3.79935V1.8349H0V25.0868H3.79935V15.5276C3.79935 12.8985 5.54708 11.5003 7.84187 11.5003C9.95433 11.5003 11.2765 12.8833 11.2765 15.5276V25.0868H15.0758V14.9349C15.0758 11.0596 13.1305 8.08089 9.24 8.08089Z" fill="black"/>
<path d="M20.2884 1.74365C18.9663 1.74365 17.9633 2.76186 17.9633 4.02324C17.9633 5.26936 18.9663 6.34842 20.2884 6.34842C21.5802 6.34842 22.644 5.26936 22.644 4.02324C22.644 2.76186 21.5802 1.74365 20.2884 1.74365Z" fill="black"/>
<path d="M22.2033 8.50647H18.4039V25.0867H22.2033V8.50647Z" fill="black"/>
<path d="M31.1545 18.4303V11.7739H35.4291V8.50648H31.1545V3.20258H27.3552V6.89549C27.3552 7.91377 26.7778 8.50648 25.7444 8.50648H24.483V11.7739H27.3552V18.7951C27.3552 22.8984 29.2853 25.0867 32.9022 25.0867H35.9417V21.8193H33.5101C31.656 21.8193 31.1545 21.0899 31.1545 18.4303Z" fill="black"/>
<path d="M43.5555 18.4303V11.7739H48.2666V8.50648H43.5555V3.20258H39.7562V6.89549C39.7562 7.91377 39.1787 8.50648 38.1453 8.50648H36.8839V11.7739H39.7562V18.7951C39.7562 22.8984 41.6862 25.0867 45.3032 25.0867H48.3427V21.8193H45.9112C44.0571 21.8193 43.5555 21.0899 43.5555 18.4303Z" fill="black"/>
<path d="M57.0964 8.14172C53.2363 8.14172 50.3032 10.1629 50.3032 13.628H53.9961C53.9961 12.2754 55.2727 11.3332 57.0508 11.3332C58.9505 11.3332 60.1815 12.2754 60.1815 14.3878V14.7829L55.9111 15.2692C51.9141 15.7251 49.6802 17.3968 49.6802 20.4515C49.6802 23.263 51.595 25.3906 54.9841 25.3906C57.0205 25.3906 58.7682 24.6003 59.7409 22.7463H60.1816V25.0867H63.981V14.9349C63.9807 10.7708 61.7315 8.14172 57.0964 8.14172ZM60.1813 17.5337C60.1813 20.7859 58.3425 22.488 56.0629 22.488C54.3456 22.488 53.4642 21.561 53.4642 20.1628C53.4642 18.7647 54.3759 17.9288 56.5948 17.7008L60.1814 17.3209V17.5337H60.1813Z" fill="black"/>
<path d="M85.561 8.11127C83.3118 8.11127 81.64 9.0232 80.7586 10.6949H80.257C79.406 9.38785 77.7039 8.11127 75.3787 8.11127C73.008 8.11127 71.5186 9.37273 70.9259 10.6949H70.4547V8.50646H66.6554V25.0867H70.4547V16.0595C70.4547 12.8833 71.8833 11.5307 73.9349 11.5307C76.0929 11.5307 76.9745 12.8073 76.9745 15.0717V25.0867H80.7738V16.4394C80.7738 12.5033 82.5215 11.5307 84.2692 11.5307C86.0777 11.5307 87.2782 12.944 87.2782 15.0717V25.0867H91.0776V14.555C91.0776 11.4395 89.4059 8.11127 85.561 8.11127Z" fill="black"/>
<path d="M97.2933 6.2724C98.5546 6.2724 99.588 5.2238 99.588 4.008C99.588 2.77708 98.5546 1.77399 97.2933 1.77399C96.0015 1.77399 95.0137 2.777 95.0137 4.008C95.0137 5.2238 96.0015 6.2724 97.2933 6.2724Z" fill="black"/>
<path d="M100.485 8.14172C96.6245 8.14172 93.6914 10.1629 93.6914 13.628H97.3844C97.3844 12.2754 98.6609 11.3332 100.439 11.3332C102.339 11.3332 103.57 12.2754 103.57 14.3878V14.7829L99.2993 15.2692C95.3024 15.7251 93.0684 17.3968 93.0684 20.4515C93.0684 23.263 94.9833 25.3906 98.3723 25.3906C100.409 25.3906 102.156 24.6003 103.129 22.7463H103.57V25.0867H107.369V14.9349C107.369 10.7708 105.12 8.14172 100.485 8.14172ZM103.57 17.5337C103.57 20.7859 101.731 22.488 99.4512 22.488C97.734 22.488 96.8525 21.561 96.8525 20.1628C96.8525 18.7647 97.7643 17.9288 99.9831 17.7008L103.57 17.3209V17.5337H103.57Z" fill="black"/>
<path d="M103.783 6.2724C105.044 6.2724 106.077 5.2238 106.077 4.008C106.077 2.77708 105.044 1.77399 103.783 1.77399C102.491 1.77399 101.503 2.777 101.503 4.008C101.503 5.2238 102.491 6.2724 103.783 6.2724Z" fill="black"/>
<path d="M125.439 8.50647H120.743L114.329 14.6766H113.843V1.8349H110.044V25.0867H113.843V19.6005L116.016 17.488L121.168 25.0867H126.062L118.949 14.9956L125.439 8.50647Z" fill="black"/>
<path d="M130.803 1.8349H127.004V25.0868H130.803V1.8349Z" fill="black"/>
<path d="M140.271 8.14172C136.411 8.14172 133.478 10.1629 133.478 13.628H137.171C137.171 12.2754 138.448 11.3332 140.226 11.3332C142.125 11.3332 143.356 12.2754 143.356 14.3878V14.7829L139.086 15.2692C135.089 15.7251 132.855 17.3968 132.855 20.4515C132.855 23.263 134.77 25.3906 138.159 25.3906C140.195 25.3906 141.943 24.6003 142.916 22.7463H143.356V25.0867H147.156V14.9349C147.156 10.7708 144.906 8.14172 140.271 8.14172ZM143.356 17.5337C143.356 20.7859 141.517 22.488 139.238 22.488C137.521 22.488 136.639 21.561 136.639 20.1628C136.639 18.7647 137.551 17.9288 139.77 17.7008L143.356 17.3209V17.5337Z" fill="black"/>
<path d="M154.086 10.6949H153.63V8.50643H149.83V25.0867H153.63V15.6795C153.63 13.1112 154.283 11.7282 157.231 11.7282H159.754V8.30884H158.356C155.833 8.30884 154.633 9.55503 154.086 10.6949Z" fill="black"/>
<path d="M175.453 16.4699C175.453 11.3028 172.292 8.08087 167.946 8.08087C163.599 8.08087 159.861 11.3787 159.861 16.713C159.861 22.0473 163.082 25.5122 167.946 25.5122C171.593 25.5122 174.404 23.7037 175.256 20.0108H171.532C171.076 21.4393 169.724 22.2448 167.946 22.2448C165.742 22.2448 163.964 20.8922 163.721 18.1568H175.286C175.408 17.6401 175.453 17.0777 175.453 16.4699ZM163.736 15.2845C164.131 12.6249 165.864 11.3484 167.946 11.3484C170.073 11.3484 171.547 12.7161 171.623 15.2845H163.736Z" fill="black"/>
</svg>
