<?xml version="1.0" encoding="utf-8"?>
<!-- Generator: Adobe Illustrator 25.3.0, SVG Export Plug-In . SVG Version: 6.00 Build 0)  -->
<svg version="1.1" id="Layer_1" xmlns="http://www.w3.org/2000/svg" xmlns:xlink="http://www.w3.org/1999/xlink" x="0px" y="0px"
	 viewBox="0 0 186 41" style="enable-background:new 0 0 186 41;" xml:space="preserve">
<style type="text/css">
	.st0{fill:#FF620F;}
	.st1{fill:#FFFFFF;}
</style>
<path class="st0" d="M181.5,0l4.5,0.9l-3.7,17.4l-4.5-1L181.5,0z"/>
<path class="st0" d="M181.9,21.3c1.7,0,3,1.3,3,3c0,1.7-1.4,3-3,3c-1.7,0-3-1.3-3-3C178.9,22.5,180.2,21.3,181.9,21.3z"/>
<path class="st1" d="M0,31v7.6h4.7v-0.8H0.9v-2.7h2.7v-0.8H0.9v-2.5h3.8V31H0z"/>
<path class="st1" d="M8.3,32.9c-0.8,0-1.4,0.3-1.6,0.9H6.5V33H5.6v5.6h0.9v-3.3c0-1.1,0.7-1.6,1.6-1.6c0.8,0,1.3,0.5,1.3,1.5v3.4
	h0.9v-3.4C10.3,33.5,9.3,32.9,8.3,32.9z"/>
<path class="st1" d="M15,36.4v-2.6h1.6V33H15v-1.8h-0.9v1.2c0,0.4-0.2,0.6-0.6,0.6h-0.4v0.8h1v2.8c0,1.3,0.7,2,1.9,2h0.6v-0.8H16
	C15.3,37.8,15,37.5,15,36.4z"/>
<path class="st1" d="M18.3,31c-0.3,0-0.6,0.3-0.6,0.6c0,0.3,0.3,0.6,0.6,0.6c0.3,0,0.6-0.3,0.6-0.6C18.9,31.2,18.6,31,18.3,31z"/>
<path class="st1" d="M17.9,39c0,0.7-0.2,0.9-0.8,0.9h-0.2v0.7h0.3c1.2,0,1.5-0.5,1.5-1.6V33h-0.9V39z"/>
<path class="st1" d="M21.3,32.1c0.3,0,0.6-0.3,0.6-0.6c0-0.3-0.2-0.6-0.6-0.6c-0.3,0-0.6,0.3-0.6,0.6C20.8,31.8,21,32.1,21.3,32.1z"
	/>
<path class="st1" d="M22.3,32.9c-1.3,0-2.1,0.7-2.1,1.6h0.9c0-0.5,0.6-0.8,1.2-0.8c0.7,0,1.3,0.3,1.3,1.3v0.3L22,35.4
	c-1.4,0.2-2.1,0.7-2.1,1.7c0,0.9,0.7,1.6,1.8,1.6c0.9,0,1.5-0.4,1.8-0.9h0.2v0.8h0.9v-3.5C24.5,33.5,23.6,32.9,22.3,32.9z M21.9,38
	c-0.6,0-1.1-0.3-1.1-0.9c0-0.6,0.4-0.9,1.4-1l1.4-0.2v0.2C23.6,37.2,22.9,38,21.9,38z"/>
<path class="st1" d="M23.3,32.1c0.3,0,0.6-0.3,0.6-0.6c0-0.3-0.2-0.6-0.6-0.6c-0.3,0-0.6,0.3-0.6,0.6C22.7,31.8,23,32.1,23.3,32.1z"
	/>
<path class="st1" d="M28.4,32.9c-0.8,0-1.4,0.3-1.6,0.9h-0.1V33h-0.9v5.6h0.9v-3.3c0-1.1,0.7-1.6,1.6-1.6c0.8,0,1.3,0.5,1.3,1.5v3.4
	h0.9v-3.4C30.4,33.5,29.4,32.9,28.4,32.9z"/>
<path class="st1" d="M33.8,35.4l-0.4-0.1c-0.8-0.2-1.2-0.5-1.2-0.9c0-0.5,0.5-0.8,1.2-0.8c0.7,0,1.1,0.3,1.2,0.8h0.9
	c-0.1-1-0.9-1.6-2.1-1.6c-1.3,0-2.1,0.7-2.1,1.6c0,0.8,0.6,1.3,1.8,1.6l0.4,0.1c0.9,0.2,1.3,0.5,1.3,0.9c0,0.5-0.5,0.8-1.3,0.8
	c-0.8,0-1.3-0.3-1.4-0.9h-0.9c0.1,1.1,1,1.7,2.3,1.7c1.3,0,2.2-0.7,2.2-1.7C35.7,36.2,35.1,35.7,33.8,35.4z"/>
<path class="st1" d="M38,36.4v-2.6h1.6V33H38v-1.8h-0.9v1.2c0,0.4-0.2,0.6-0.6,0.6h-0.4v0.8h1v2.8c0,1.3,0.7,2,1.9,2h0.6v-0.8H39
	C38.2,37.8,38,37.5,38,36.4z"/>
<path class="st1" d="M43.2,32.4V33h-1v0.8h1v4.9h0.9v-4.9h1.6V33h-1.6v-0.5c0-0.6,0.3-1,0.9-1h0.7v-0.8h-0.8
	C43.7,30.7,43.2,31.3,43.2,32.4z"/>
<path class="st1" d="M47.6,33.7h-0.1V33h-0.9v5.6h0.9v-3.4c0-1.1,0.4-1.6,1.4-1.6h0.5v-0.8h-0.4C48.2,32.9,47.8,33.3,47.6,33.7z"/>
<path class="st1" d="M52.1,32.9c-1.3,0-2.1,0.7-2.1,1.6h0.9c0-0.5,0.6-0.8,1.2-0.8c0.7,0,1.3,0.3,1.3,1.3v0.3l-1.6,0.2
	c-1.4,0.2-2.1,0.7-2.1,1.7c0,0.9,0.7,1.6,1.8,1.6c0.9,0,1.5-0.4,1.8-0.9h0.2v0.8h0.9v-3.5C54.3,33.5,53.3,32.9,52.1,32.9z M51.6,38
	c-0.6,0-1.1-0.3-1.1-0.9c0-0.6,0.4-0.9,1.4-1l1.4-0.2v0.2C53.4,37.2,52.6,38,51.6,38z"/>
<path class="st1" d="M52.1,32.5c0.7,0,1.2-0.5,1.2-1.1c0-0.6-0.5-1.1-1.2-1.1c-0.7,0-1.2,0.5-1.2,1.1C50.9,31.9,51.4,32.5,52.1,32.5
	z M52.1,30.8c0.3,0,0.5,0.3,0.5,0.5c0,0.3-0.3,0.5-0.5,0.5c-0.3,0-0.5-0.3-0.5-0.5C51.5,31,51.7,30.8,52.1,30.8z"/>
<path class="st1" d="M58.2,32.9c-0.8,0-1.4,0.3-1.6,0.9h-0.1V33h-0.9v5.6h0.9v-3.3c0-1.1,0.7-1.6,1.6-1.6c0.8,0,1.3,0.5,1.3,1.5v3.4
	h0.9v-3.4C60.2,33.5,59.2,32.9,58.2,32.9z"/>
<path class="st1" d="M66.6,34.5l-1-0.3C65,34,64.4,33.6,64.4,33c0-0.7,0.7-1.2,1.6-1.2c0.9,0,1.5,0.4,1.6,1.2h1
	c-0.1-1.2-1.2-2-2.6-2c-1.4,0-2.5,0.9-2.5,2.1c0,1,0.7,1.6,1.9,2l1,0.3c0.7,0.2,1.3,0.5,1.3,1.2c0,0.8-0.7,1.3-1.7,1.3
	c-1.1,0-1.8-0.5-1.8-1.3h-1c0.1,1.3,1.2,2.1,2.8,2.1c1.5,0,2.6-0.8,2.6-2.1C68.7,35.3,67.7,34.9,66.6,34.5z"/>
<path class="st1" d="M73.3,34.8v-0.2c0.9-0.3,1.3-0.9,1.3-1.6c0-1.2-0.8-2-2.5-2h-2.4v7.6h2.6c1.7,0,2.5-0.9,2.5-2.1
	C74.9,35.6,74.4,34.9,73.3,34.8z M70.6,31.8h1.6c1,0,1.5,0.5,1.5,1.2c0,0.7-0.4,1.3-1.6,1.3h-1.5V31.8z M72.4,37.8h-1.8v-2.7h1.9
	c1,0,1.5,0.5,1.5,1.4C74,37.2,73.5,37.8,72.4,37.8z"/>
<path class="st1" d="M77.9,31l-2.7,7.6h0.9l0.8-2.2h3.3l0.8,2.2h1L79.2,31H77.9z M77.2,35.6l1.3-3.6h0.2l1.3,3.6H77.2z"/>
<path class="st1" d="M86.1,34.8v-0.2c0.9-0.3,1.3-0.9,1.3-1.6c0-1.2-0.8-2-2.5-2h-2.4v7.6h2.6c1.7,0,2.5-0.9,2.5-2.1
	C87.7,35.6,87.2,34.9,86.1,34.8z M83.4,31.8H85c1,0,1.5,0.5,1.5,1.2c0,0.7-0.4,1.3-1.6,1.3h-1.5V31.8z M85.2,37.8h-1.8v-2.7h1.9
	c1,0,1.5,0.5,1.5,1.4C86.8,37.2,86.3,37.8,85.2,37.8z"/>
<path class="st1" d="M9.2,8.1c-2.5,0-4.1,1.2-5,2.6H3.8V1.8H0v23.3h3.8v-9.6c0-2.6,1.7-4,4-4c2.1,0,3.4,1.4,3.4,4v9.6h3.8V14.9
	C15.1,11.1,13.1,8.1,9.2,8.1z"/>
<path class="st1" d="M20.3,1.7C19,1.7,18,2.8,18,4c0,1.2,1,2.3,2.3,2.3c1.3,0,2.4-1.1,2.4-2.3C22.6,2.8,21.6,1.7,20.3,1.7z"/>
<path class="st1" d="M22.2,8.5h-3.8v16.6h3.8V8.5z"/>
<path class="st1" d="M31.2,18.4v-6.7h4.3V8.5h-4.3V3.2h-3.8v3.7c0,1-0.6,1.6-1.6,1.6h-1.3v3.3h2.9v7c0,4.1,1.9,6.3,5.5,6.3h3v-3.3
	h-2.4C31.7,21.8,31.2,21.1,31.2,18.4z"/>
<path class="st1" d="M43.6,18.4v-6.7h4.7V8.5h-4.7V3.2h-3.8v3.7c0,1-0.6,1.6-1.6,1.6h-1.3v3.3h2.9v7c0,4.1,1.9,6.3,5.5,6.3h3v-3.3
	h-2.4C44.1,21.8,43.6,21.1,43.6,18.4z"/>
<path class="st1" d="M57.1,8.1c-3.9,0-6.8,2-6.8,5.5H54c0-1.4,1.3-2.3,3.1-2.3c1.9,0,3.1,0.9,3.1,3.1v0.4l-4.3,0.5
	c-4,0.5-6.2,2.1-6.2,5.2c0,2.8,1.9,4.9,5.3,4.9c2,0,3.8-0.8,4.8-2.6h0.4v2.3H64V14.9C64,10.8,61.7,8.1,57.1,8.1z M60.2,17.5
	c0,3.3-1.8,5-4.1,5c-1.7,0-2.6-0.9-2.6-2.3c0-1.4,0.9-2.2,3.1-2.5l3.6-0.4L60.2,17.5L60.2,17.5z"/>
<path class="st1" d="M85.6,8.1c-2.2,0-3.9,0.9-4.8,2.6h-0.5c-0.9-1.3-2.6-2.6-4.9-2.6c-2.4,0-3.9,1.3-4.5,2.6h-0.5V8.5h-3.8v16.6
	h3.8v-9c0-3.2,1.4-4.5,3.5-4.5c2.2,0,3,1.3,3,3.5v10h3.8v-8.6c0-3.9,1.7-4.9,3.5-4.9c1.8,0,3,1.4,3,3.5v10h3.8V14.6
	C91.1,11.4,89.4,8.1,85.6,8.1z"/>
<path class="st1" d="M97.3,6.3c1.3,0,2.3-1,2.3-2.3c0-1.2-1-2.2-2.3-2.2C96,1.8,95,2.8,95,4C95,5.2,96,6.3,97.3,6.3z"/>
<path class="st1" d="M100.5,8.1c-3.9,0-6.8,2-6.8,5.5h3.7c0-1.4,1.3-2.3,3.1-2.3c1.9,0,3.1,0.9,3.1,3.1v0.4l-4.3,0.5
	c-4,0.5-6.2,2.1-6.2,5.2c0,2.8,1.9,4.9,5.3,4.9c2,0,3.8-0.8,4.8-2.6h0.4v2.3h3.8V14.9C107.4,10.8,105.1,8.1,100.5,8.1z M103.6,17.5
	c0,3.3-1.8,5-4.1,5c-1.7,0-2.6-0.9-2.6-2.3c0-1.4,0.9-2.2,3.1-2.5l3.6-0.4V17.5L103.6,17.5z"/>
<path class="st1" d="M103.8,6.3c1.3,0,2.3-1,2.3-2.3c0-1.2-1-2.2-2.3-2.2c-1.3,0-2.3,1-2.3,2.2C101.5,5.2,102.5,6.3,103.8,6.3z"/>
<path class="st1" d="M125.4,8.5h-4.7l-6.4,6.2h-0.5V1.8H110v23.3h3.8v-5.5l2.2-2.1l5.2,7.6h4.9L118.9,15L125.4,8.5z"/>
<path class="st1" d="M130.8,1.8H127v23.3h3.8V1.8z"/>
<path class="st1" d="M140.3,8.1c-3.9,0-6.8,2-6.8,5.5h3.7c0-1.4,1.3-2.3,3.1-2.3c1.9,0,3.1,0.9,3.1,3.1v0.4l-4.3,0.5
	c-4,0.5-6.2,2.1-6.2,5.2c0,2.8,1.9,4.9,5.3,4.9c2,0,3.8-0.8,4.8-2.6h0.4v2.3h3.8V14.9C147.2,10.8,144.9,8.1,140.3,8.1z M143.4,17.5
	c0,3.3-1.8,5-4.1,5c-1.7,0-2.6-0.9-2.6-2.3c0-1.4,0.9-2.2,3.1-2.5l3.6-0.4V17.5z"/>
<path class="st1" d="M154.1,10.7h-0.5V8.5h-3.8v16.6h3.8v-9.4c0-2.6,0.7-4,3.6-4h2.5V8.3h-1.4C155.8,8.3,154.6,9.6,154.1,10.7z"/>
<path class="st1" d="M175.5,16.5c0-5.2-3.2-8.4-7.5-8.4c-4.3,0-8.1,3.3-8.1,8.6s3.2,8.8,8.1,8.8c3.6,0,6.5-1.8,7.3-5.5h-3.7
	c-0.5,1.4-1.8,2.2-3.6,2.2c-2.2,0-4-1.4-4.2-4.1h11.6C175.4,17.6,175.5,17.1,175.5,16.5z M163.7,15.3c0.4-2.7,2.1-3.9,4.2-3.9
	c2.1,0,3.6,1.4,3.7,3.9H163.7z"/>
</svg>
