<svg id="Layer_1" data-name="Layer 1" xmlns="http://www.w3.org/2000/svg" viewBox="0 0 600 600"><defs><style>.cls-1{fill:#fff;}</style></defs><path class="cls-1" d="M300,598C135.68,598,2,464.32,2,300S135.68,2,300,2,598,135.68,598,300,464.32,598,300,598Zm0-583C142.85,15,15,142.85,15,300S142.85,585,300,585h0c157.15,0,285-127.85,285-285S457.15,15,300,15Z"/><path class="cls-1" d="M269,330q-14.72,0-24.27-2.66a95.71,95.71,0,0,1-16.28-5.95q-6.75-3.28-11.9-6a23.38,23.38,0,0,0-10.81-2.66q-5.62,0-7.51,6.57h-3.76V265.45h3.76q4.38,28.5,22.54,44.62T269,326.2q14.1,0,23.8-3.76a41.71,41.71,0,0,0,15.82-10.33,38.91,38.91,0,0,0,8.77-15.35A64.45,64.45,0,0,0,320.07,278a65.41,65.41,0,0,0-3-21,42.48,42.48,0,0,0-9.7-15.81A73.54,73.54,0,0,0,289.53,228q-11.11-6.12-27.4-13.31A284.72,284.72,0,0,1,235,200.94a93.41,93.41,0,0,1-19.57-14.88,56.52,56.52,0,0,1-11.9-17.54,55.08,55.08,0,0,1-4.07-21.76q0-13.78,5.32-24.27a52.88,52.88,0,0,1,14.41-17.7,65.39,65.39,0,0,1,20.83-11A81.27,81.27,0,0,1,265,90.08,96.11,96.11,0,0,1,285.78,92,115.44,115.44,0,0,1,300,96q6,2.19,10.5,4.07a24,24,0,0,0,9.23,1.88q6.58,0,8.46-6.58h3.44v41.65h-3.44q-6.27-22.23-22.7-32.72T265,93.83q-21.91,0-34.13,9.4T218.6,131.41A52.34,52.34,0,0,0,221.27,149a38.5,38.5,0,0,0,8.61,13.78,72.21,72.21,0,0,0,15.34,11.9,198.43,198.43,0,0,0,23.18,11.59q16,6.89,29.43,13.78a123,123,0,0,1,23.49,15.34A61.84,61.84,0,0,1,337,235.07q5.64,11.28,5.63,26.62a64.85,64.85,0,0,1-21.29,48.54,76.35,76.35,0,0,1-23.49,14.41A77.8,77.8,0,0,1,269,330Z"/><path class="cls-1" d="M241.1,506.79a24.52,24.52,0,0,0,8.93-4.23q3.28-2.65,5-9.86t2-21.14q.3-13.94.31-38.36V351.46q0-24.1-.31-38t-2-21.13q-1.72-7.2-5-9.87a28.7,28.7,0,0,0-8.93-4.54v-2.82H386.41a6.82,6.82,0,0,1,4.22,1.1q1.41,1.1,2.35,6.73l5.32,29.75h-4.07a67.57,67.57,0,0,0-8-16.91,36.6,36.6,0,0,0-10.49-10.33,38.07,38.07,0,0,0-13.47-5.17,94.09,94.09,0,0,0-17.22-1.41h-61.7v98.65h24.74c6.9,0,12.26-.73,16.13-2.2a22.17,22.17,0,0,0,8.77-5.48,16.35,16.35,0,0,0,3.92-7.51q.93-4.23,1.88-8.61h3.44V405h-3.44c-.63-2.72-1.26-5.53-1.88-8.46a16.41,16.41,0,0,0-3.92-7.67,22.28,22.28,0,0,0-8.77-5.48c-3.87-1.46-9.23-2.19-16.13-2.19H283.37v125H351a132.55,132.55,0,0,0,18.16-1.1,33.05,33.05,0,0,0,13.78-5,34,34,0,0,0,10.34-11.27q4.38-7.37,7.82-20.2h4.39l-4.07,33.82c-.43,3.55-1.15,5.69-2.2,6.42a8.9,8.9,0,0,1-5,1.09H241.1Z"/></svg>