<?xml version="1.0" encoding="UTF-8"?><svg id="Layer_1" xmlns="http://www.w3.org/2000/svg" viewBox="0 0 330 64"><defs><style>.cls-1{fill:#333b4f;}.cls-2{fill:#fbb03b;}</style></defs><g><path class="cls-2" d="M149.75,4.77h-19.47c-.15,0-.22,.07-.22,.22v11.78c0,.15,.07,.22,.22,.22h13.38c.36,0,.55,.18,.55,.55v3.45c0,.37-.18,.55-.55,.55h-13.38c-.15,0-.22,.07-.22,.22v12.06c0,.15,.07,.22,.22,.22h19.47c.37,0,.55,.18,.55,.55v3.45c0,.37-.18,.55-.55,.55h-24.4c-.37,0-.55-.18-.55-.55V.77c0-.37,.18-.55,.55-.55h24.4c.37,0,.55,.18,.55,.55v3.45c0,.37-.18,.55-.55,.55Z"/><path class="cls-2" d="M160.96,37.93c-1.66-.66-2.95-1.56-3.87-2.71-.91-1.15-1.37-2.42-1.37-3.81v-.6c0-.36,.18-.55,.55-.55h3.95c.37,0,.55,.18,.55,.55v.27c0,1.02,.56,1.92,1.67,2.69,1.11,.77,2.53,1.15,4.25,1.15s2.98-.36,4-1.07c1.02-.71,1.54-1.62,1.54-2.71s-.48-1.85-1.43-2.38c-.95-.53-2.49-1.09-4.61-1.67-2.08-.58-3.83-1.18-5.24-1.78-1.41-.6-2.6-1.46-3.56-2.58-.97-1.11-1.45-2.55-1.45-4.3,0-2.45,.96-4.39,2.88-5.84,1.92-1.44,4.47-2.17,7.65-2.17,2.12,0,3.99,.34,5.62,1.01,1.63,.68,2.88,1.62,3.76,2.82s1.32,2.56,1.32,4.06v.16c0,.37-.18,.55-.55,.55h-3.84c-.37,0-.55-.18-.55-.55v-.16c0-1.06-.52-1.95-1.56-2.66-1.04-.71-2.46-1.07-4.25-1.07-1.61,0-2.92,.31-3.92,.93-1.01,.62-1.51,1.46-1.51,2.52s.48,1.86,1.45,2.41c.97,.55,2.53,1.13,4.69,1.75,2.12,.58,3.88,1.16,5.29,1.73,1.41,.57,2.6,1.41,3.59,2.52,.99,1.12,1.48,2.57,1.48,4.36,0,2.49-.98,4.46-2.93,5.92-1.96,1.46-4.56,2.19-7.81,2.19-2.19,0-4.12-.33-5.79-.99Z"/><path class="cls-2" d="M196.8,15.02h-5.92c-.15,0-.22,.07-.22,.22v14.52c0,1.53,.35,2.64,1.04,3.32,.69,.68,1.77,1.01,3.24,1.01h1.59c.36,0,.55,.18,.55,.55v3.4c0,.37-.18,.55-.55,.55-1.17,.07-2.01,.11-2.52,.11-2.78,0-4.87-.5-6.28-1.51-1.41-1-2.11-2.86-2.11-5.56V15.24c0-.15-.07-.22-.22-.22h-3.34c-.37,0-.55-.18-.55-.55v-3.23c0-.37,.18-.55,.55-.55h3.34c.15,0,.22-.07,.22-.22V4.01c0-.37,.18-.55,.55-.55h3.95c.37,0,.55,.18,.55,.55v6.47c0,.15,.07,.22,.22,.22h5.92c.37,0,.55,.18,.55,.55v3.23c0,.37-.18,.55-.55,.55Z"/><path class="cls-2" d="M219.85,11.43c1.66,.79,2.94,1.88,3.84,3.29,.9,1.41,1.34,3.01,1.34,4.8v18.53c0,.37-.18,.55-.55,.55h-4.17c-.37,0-.55-.18-.55-.55v-1.97c0-.18-.09-.22-.27-.11-.95,.99-2.11,1.75-3.48,2.27s-2.9,.79-4.58,.79c-2.71,0-4.94-.69-6.72-2.06-1.77-1.37-2.66-3.44-2.66-6.22s1-5.09,2.99-6.71c1.99-1.63,4.78-2.44,8.36-2.44h6.14c.15,0,.22-.07,.22-.22v-1.48c0-1.61-.47-2.86-1.4-3.75-.93-.89-2.35-1.34-4.25-1.34-1.54,0-2.79,.3-3.76,.9-.97,.6-1.56,1.42-1.78,2.44-.11,.37-.33,.53-.66,.49l-4.44-.6c-.37-.07-.53-.22-.49-.44,.29-2.16,1.44-3.92,3.46-5.29,2.01-1.37,4.53-2.06,7.57-2.06,2.23,0,4.18,.39,5.84,1.18Zm-2.22,21.62c1.43-1.02,2.14-2.32,2.14-3.89v-3.23c0-.15-.07-.22-.22-.22h-5.15c-2.16,0-3.88,.42-5.15,1.26-1.28,.84-1.92,2.01-1.92,3.51,0,1.35,.48,2.38,1.45,3.07,.97,.69,2.24,1.04,3.81,1.04,1.94,0,3.62-.51,5.04-1.53Z"/><path class="cls-1" d="M244.06,13.43h-6.42c-.15,0-.22,.07-.22,.22V30.97c0,1.86,.42,3.17,1.26,3.92,.84,.75,2.19,1.12,4.06,1.12h1.26c.36,0,.55,.18,.55,.55v1.48c0,.37-.18,.55-.55,.55l-1.65,.05c-2.56,0-4.49-.49-5.79-1.48-1.3-.99-1.97-2.8-2-5.43V13.65c0-.15-.07-.22-.22-.22h-3.29c-.37,0-.55-.18-.55-.55v-1.37c0-.36,.18-.55,.55-.55h3.29c.15,0,.22-.07,.22-.22V4.5c0-.37,.18-.55,.55-.55h1.75c.36,0,.55,.18,.55,.55v6.25c0,.15,.07,.22,.22,.22h6.42c.36,0,.55,.18,.55,.55v1.37c0,.37-.18,.55-.55,.55Z"/><path class="cls-1" d="M266.57,35.27c1.22-.79,2.18-1.87,2.88-3.26,.18-.33,.42-.42,.71-.27l1.43,.71c.33,.18,.42,.42,.27,.71-.8,1.79-2.08,3.22-3.81,4.28-1.74,1.06-3.78,1.59-6.11,1.59-2.56,0-4.73-.62-6.53-1.86-1.79-1.24-3.02-2.94-3.67-5.1-.29-.91-.49-1.94-.6-3.07-.11-1.13-.16-2.56-.16-4.27s.03-3.14,.08-4.06c.05-.91,.17-1.75,.36-2.52,.58-2.3,1.78-4.15,3.59-5.54,1.81-1.39,4.03-2.08,6.66-2.08,3,0,5.39,.78,7.18,2.33,1.79,1.55,2.91,3.7,3.35,6.44,.11,.69,.18,1.51,.22,2.44,.04,.93,.05,2.09,.05,3.48,0,.37-.18,.55-.55,.55h-17.88c-.15,0-.22,.07-.22,.22,0,2.34,.09,3.89,.27,4.66,.4,1.79,1.31,3.21,2.71,4.25,1.41,1.04,3.19,1.56,5.35,1.56,1.72,0,3.19-.39,4.41-1.18Zm-12.75-12.19c0,.15,.07,.22,.22,.22h15.3c.15,0,.22-.07,.22-.22,0-1.83-.09-3.2-.27-4.11-.4-1.75-1.28-3.17-2.63-4.25-1.35-1.08-3.02-1.62-4.99-1.62s-3.62,.52-4.94,1.56c-1.32,1.04-2.16,2.42-2.52,4.14-.18,.69-.31,2.12-.38,4.28Z"/><path class="cls-1" d="M284.34,37c-1.81-1.35-3.03-3.16-3.65-5.43-.48-1.75-.71-4.04-.71-6.85s.24-4.97,.71-6.8c.58-2.23,1.79-4.02,3.62-5.37,1.83-1.35,4.04-2.03,6.64-2.03s4.83,.66,6.72,1.97c1.88,1.32,3.08,2.96,3.59,4.93,.15,.51,.25,1.02,.33,1.53v.11c0,.26-.16,.42-.49,.49l-1.75,.22h-.11c-.26,0-.42-.16-.49-.49l-.16-.77c-.33-1.53-1.19-2.82-2.58-3.86-1.39-1.04-3.07-1.56-5.05-1.56s-3.68,.53-5.02,1.59c-1.33,1.06-2.18,2.47-2.55,4.22-.33,1.39-.49,3.34-.49,5.86s.16,4.49,.49,5.81c.37,1.79,1.22,3.22,2.55,4.28,1.33,1.06,3.01,1.59,5.02,1.59s3.67-.52,5.07-1.56c1.41-1.04,2.26-2.35,2.55-3.92l.05-.27c.07-.4,.29-.57,.66-.49l1.7,.27c.37,.07,.53,.27,.49,.6l-.22,.99c-.51,2.05-1.71,3.72-3.59,5.01-1.88,1.3-4.12,1.95-6.72,1.95s-4.8-.68-6.61-2.03Z"/><path class="cls-1" d="M326.9,13.16c1.74,1.72,2.6,3.98,2.6,6.8v18.09c0,.37-.18,.55-.55,.55h-1.81c-.37,0-.55-.18-.55-.55V20.5c0-2.16-.66-3.92-1.97-5.29-1.32-1.37-3.03-2.06-5.15-2.06s-3.97,.67-5.32,2c-1.35,1.33-2.03,3.08-2.03,5.23v17.65c0,.37-.18,.55-.55,.55h-1.81c-.37,0-.55-.18-.55-.55V.77c0-.37,.18-.55,.55-.55h1.81c.37,0,.55,.18,.55,.55V14.2c0,.11,.03,.17,.08,.19,.05,.02,.1,0,.14-.08,.8-1.21,1.86-2.13,3.18-2.77,1.32-.64,2.83-.96,4.55-.96,2.81,0,5.09,.86,6.83,2.58Z"/></g><g><path class="cls-1" d="M129.74,63.71l-1.68-3.84s-.05-.06-.09-.06h-.64c-.05,0-.08,.03-.08,.08v3.77c0,.07-.02,.13-.06,.17-.04,.04-.1,.06-.17,.06h-2.41c-.07,0-.13-.02-.17-.06-.04-.04-.06-.1-.06-.17v-10.14c0-.07,.02-.13,.06-.17,.04-.04,.1-.06,.17-.06h4.61c.69,0,1.3,.14,1.82,.42,.52,.28,.93,.68,1.22,1.19,.29,.51,.43,1.1,.43,1.76s-.17,1.25-.5,1.75c-.33,.5-.78,.86-1.36,1.1-.05,.02-.07,.06-.05,.11l1.93,3.99c.02,.06,.03,.1,.03,.11,0,.05-.02,.09-.06,.12s-.09,.05-.15,.05h-2.56c-.13,0-.22-.06-.26-.17Zm-2.48-7.91v1.77c0,.05,.03,.08,.08,.08h1.43c.32,0,.59-.09,.79-.27,.2-.18,.3-.41,.3-.69s-.1-.53-.3-.7-.47-.26-.79-.26h-1.43c-.05,0-.08,.03-.08,.08Z"/><path class="cls-1" d="M144.47,55.66s-.1,.06-.17,.06h-4.55c-.05,0-.08,.03-.08,.08v1.42c0,.05,.03,.08,.08,.08h2.82c.07,0,.13,.02,.17,.06,.04,.04,.06,.1,.06,.17v1.97c0,.07-.02,.13-.06,.17-.04,.04-.1,.06-.17,.06h-2.82c-.05,0-.08,.03-.08,.08v1.57c0,.05,.03,.08,.08,.08h4.55c.07,0,.13,.02,.17,.06s.06,.1,.06,.17v1.98c0,.07-.02,.13-.06,.17-.04,.04-.1,.06-.17,.06h-7.27c-.07,0-.13-.02-.17-.06-.04-.04-.06-.1-.06-.17v-10.14c0-.07,.02-.13,.06-.17,.04-.04,.1-.06,.17-.06h7.27c.07,0,.13,.02,.17,.06,.04,.04,.06,.1,.06,.17v1.98c0,.07-.02,.13-.06,.17Z"/><path class="cls-1" d="M155.4,63.68l-.33-1.18s-.05-.06-.08-.06h-3.23s-.06,.02-.08,.06l-.33,1.18c-.03,.13-.12,.2-.26,.2h-2.6c-.18,0-.25-.09-.2-.26l3.21-10.15c.04-.12,.13-.18,.26-.18h3.23c.13,0,.22,.06,.26,.18l3.21,10.15s.02,.05,.02,.09c0,.11-.07,.17-.21,.17h-2.6c-.14,0-.23-.07-.26-.2Zm-2.98-3.42h1.9c.06,0,.08-.03,.06-.09l-.97-3.39s-.03-.05-.05-.05-.04,.02-.05,.05l-.96,3.39c-.01,.06,.01,.09,.06,.09Z"/><path class="cls-1" d="M162.52,63.82s-.06-.1-.06-.17v-10.14c0-.07,.02-.13,.06-.17,.04-.04,.1-.06,.17-.06h2.41c.07,0,.13,.02,.17,.06,.04,.04,.06,.1,.06,.17v7.85c0,.05,.03,.08,.08,.08h4.71c.07,0,.13,.02,.17,.06s.06,.1,.06,.17v1.98c0,.07-.02,.13-.06,.17-.04,.04-.1,.06-.17,.06h-7.42c-.07,0-.13-.02-.17-.06Z"/><path class="cls-1" d="M195.64,63.58c-.64-.28-1.13-.67-1.48-1.19-.35-.51-.53-1.11-.53-1.78v-.21c0-.07,.02-.13,.06-.17s.1-.06,.17-.06h2.36c.07,0,.13,.02,.17,.06s.06,.1,.06,.17v.09c0,.28,.15,.53,.45,.75,.3,.22,.7,.32,1.2,.32,.38,0,.64-.08,.81-.23s.24-.33,.24-.52c0-.22-.1-.39-.3-.5s-.57-.25-1.11-.41l-.44-.12c-1.01-.3-1.85-.71-2.53-1.21s-1.02-1.24-1.02-2.19c0-.64,.17-1.2,.52-1.69,.34-.49,.82-.86,1.42-1.13,.6-.26,1.28-.39,2.03-.39,.79,0,1.51,.15,2.16,.44,.64,.29,1.15,.71,1.52,1.24,.37,.53,.56,1.14,.56,1.83v.14c0,.07-.02,.13-.06,.17s-.1,.06-.17,.06h-2.36c-.07,0-.13-.02-.17-.06s-.06-.1-.06-.17v-.02c0-.3-.14-.58-.41-.82-.27-.25-.64-.37-1.11-.37-.32,0-.58,.07-.77,.2-.19,.13-.28,.31-.28,.54,0,.18,.07,.34,.21,.46,.14,.13,.35,.25,.63,.36,.28,.12,.72,.26,1.31,.45,.08,.03,.44,.14,1.07,.33,.63,.19,1.17,.52,1.59,1.01,.43,.49,.64,1.08,.64,1.78s-.17,1.26-.52,1.75-.83,.86-1.45,1.13c-.62,.26-1.34,.39-2.16,.39s-1.6-.14-2.24-.42Z"/><path class="cls-1" d="M214.19,53.35s.06,.1,.06,.17v2c0,.07-.02,.13-.06,.17-.04,.04-.1,.06-.17,.06h-2.56c-.05,0-.08,.02-.08,.08v7.84c0,.07-.02,.13-.06,.17s-.1,.06-.17,.06h-2.41c-.07,0-.13-.02-.17-.06-.04-.04-.06-.1-.06-.17v-7.84c0-.05-.03-.08-.08-.08h-2.48c-.07,0-.13-.02-.17-.06s-.06-.1-.06-.17v-2c0-.07,.02-.13,.06-.17,.04-.04,.1-.06,.17-.06h8.06c.07,0,.13,.02,.17,.06Z"/><path class="cls-1" d="M223.97,63.68l-.33-1.18s-.05-.06-.08-.06h-3.23s-.06,.02-.08,.06l-.33,1.18c-.03,.13-.12,.2-.26,.2h-2.6c-.18,0-.25-.09-.2-.26l3.21-10.15c.04-.12,.13-.18,.26-.18h3.23c.13,0,.22,.06,.26,.18l3.21,10.15s.02,.05,.02,.09c0,.11-.07,.17-.21,.17h-2.6c-.14,0-.23-.07-.26-.2Zm-2.98-3.42h1.9c.06,0,.08-.03,.06-.09l-.97-3.39s-.03-.05-.05-.05-.04,.02-.05,.05l-.96,3.39c-.01,.06,.01,.09,.06,.09Z"/><path class="cls-1" d="M237.63,53.35s.06,.1,.06,.17v2c0,.07-.02,.13-.06,.17-.04,.04-.1,.06-.17,.06h-2.56c-.05,0-.08,.02-.08,.08v7.84c0,.07-.02,.13-.06,.17s-.1,.06-.17,.06h-2.41c-.07,0-.13-.02-.17-.06-.04-.04-.06-.1-.06-.17v-7.84c0-.05-.03-.08-.08-.08h-2.48c-.07,0-.13-.02-.17-.06s-.06-.1-.06-.17v-2c0-.07,.02-.13,.06-.17,.04-.04,.1-.06,.17-.06h8.06c.07,0,.13,.02,.17,.06Z"/><path class="cls-1" d="M249.27,55.66s-.1,.06-.17,.06h-4.55c-.05,0-.08,.03-.08,.08v1.42c0,.05,.03,.08,.08,.08h2.82c.07,0,.13,.02,.17,.06,.04,.04,.06,.1,.06,.17v1.97c0,.07-.02,.13-.06,.17-.04,.04-.1,.06-.17,.06h-2.82c-.05,0-.08,.03-.08,.08v1.57c0,.05,.03,.08,.08,.08h4.55c.07,0,.13,.02,.17,.06s.06,.1,.06,.17v1.98c0,.07-.02,.13-.06,.17-.04,.04-.1,.06-.17,.06h-7.27c-.07,0-.13-.02-.17-.06-.04-.04-.06-.1-.06-.17v-10.14c0-.07,.02-.13,.06-.17,.04-.04,.1-.06,.17-.06h7.27c.07,0,.13,.02,.17,.06,.04,.04,.06,.1,.06,.17v1.98c0,.07-.02,.13-.06,.17Z"/><path class="cls-1" d="M187.93,55.66s-.1,.06-.17,.06h-4.55c-.05,0-.08,.03-.08,.08v1.42c0,.05,.03,.08,.08,.08h2.82c.07,0,.13,.02,.17,.06,.04,.04,.06,.1,.06,.17v1.97c0,.07-.02,.13-.06,.17-.04,.04-.1,.06-.17,.06h-2.82c-.05,0-.08,.03-.08,.08v1.57c0,.05,.03,.08,.08,.08h4.55c.07,0,.13,.02,.17,.06s.06,.1,.06,.17v1.98c0,.07-.02,.13-.06,.17-.04,.04-.1,.06-.17,.06h-7.27c-.07,0-.13-.02-.17-.06-.04-.04-.06-.1-.06-.17v-10.14c0-.07,.02-.13,.06-.17,.04-.04,.1-.06,.17-.06h7.27c.07,0,.13,.02,.17,.06,.04,.04,.06,.1,.06,.17v1.98c0,.07-.02,.13-.06,.17Z"/><path class="cls-1" d="M264.88,53.35s.1-.06,.17-.06h2.41c.07,0,.13,.02,.17,.06,.04,.04,.06,.1,.06,.17v10.14c0,.07-.02,.13-.06,.17-.04,.04-.1,.06-.17,.06h-2.41c-.07,0-.13-.02-.17-.06-.04-.04-.06-.1-.06-.17v-3.84c0-.05-.03-.08-.08-.08h-2.38c-.05,0-.08,.02-.08,.08v3.84c0,.07-.02,.13-.06,.17-.04,.04-.1,.06-.17,.06h-2.41c-.07,0-.13-.02-.17-.06-.04-.04-.06-.1-.06-.17v-10.14c0-.07,.02-.13,.06-.17,.04-.04,.1-.06,.17-.06h2.41c.07,0,.13,.02,.17,.06,.04,.04,.06,.1,.06,.17v3.71c0,.05,.03,.08,.08,.08h2.38c.05,0,.08-.03,.08-.08v-3.71c0-.07,.02-.13,.06-.17Z"/><path class="cls-1" d="M273.7,63.53c-.63-.31-1.12-.76-1.47-1.33-.35-.57-.52-1.24-.52-2v-6.69c0-.07,.02-.13,.06-.17,.04-.04,.1-.06,.17-.06h2.41c.07,0,.13,.02,.17,.06,.04,.04,.06,.1,.06,.17v6.69c0,.41,.12,.74,.36,.99,.24,.25,.56,.37,.95,.37s.7-.13,.94-.38c.24-.25,.36-.58,.36-.98v-6.69c0-.07,.02-.13,.06-.17,.04-.04,.1-.06,.17-.06h2.41c.07,0,.13,.02,.17,.06,.04,.04,.06,.1,.06,.17v6.69c0,.76-.17,1.42-.52,2-.35,.58-.83,1.02-1.46,1.33-.63,.31-1.36,.47-2.18,.47s-1.55-.16-2.19-.47Z"/><path class="cls-1" d="M290.25,53.35s.1-.06,.17-.06h2.41c.07,0,.13,.02,.17,.06,.04,.04,.06,.1,.06,.17v10.14c0,.07-.02,.13-.06,.17-.04,.04-.1,.06-.17,.06h-2.3c-.12,0-.21-.05-.27-.15l-3.11-5.14s-.04-.04-.06-.04c-.02,0-.03,.03-.03,.07l.03,5.04c0,.07-.02,.13-.06,.17-.04,.04-.1,.06-.17,.06h-2.41c-.07,0-.13-.02-.17-.06-.04-.04-.06-.1-.06-.17v-10.14c0-.07,.02-.13,.06-.17,.04-.04,.1-.06,.17-.06h2.3c.12,0,.21,.05,.27,.15l3.09,5.14s.04,.04,.06,.04c.02,0,.03-.03,.03-.07v-5.04c-.01-.07,0-.13,.05-.17Z"/><path class="cls-1" d="M305.42,53.35s.06,.1,.06,.17v2c0,.07-.02,.13-.06,.17-.04,.04-.1,.06-.17,.06h-2.56c-.05,0-.08,.02-.08,.08v7.84c0,.07-.02,.13-.06,.17s-.1,.06-.17,.06h-2.41c-.07,0-.13-.02-.17-.06-.04-.04-.06-.1-.06-.17v-7.84c0-.05-.03-.08-.08-.08h-2.48c-.07,0-.13-.02-.17-.06s-.06-.1-.06-.17v-2c0-.07,.02-.13,.06-.17,.04-.04,.1-.06,.17-.06h8.06c.07,0,.13,.02,.17,.06Z"/><path class="cls-1" d="M317.06,55.66s-.1,.06-.17,.06h-4.55c-.05,0-.08,.03-.08,.08v1.42c0,.05,.03,.08,.08,.08h2.82c.07,0,.13,.02,.17,.06,.04,.04,.06,.1,.06,.17v1.97c0,.07-.02,.13-.06,.17-.04,.04-.1,.06-.17,.06h-2.82c-.05,0-.08,.03-.08,.08v1.57c0,.05,.03,.08,.08,.08h4.55c.07,0,.13,.02,.17,.06s.06,.1,.06,.17v1.98c0,.07-.02,.13-.06,.17-.04,.04-.1,.06-.17,.06h-7.27c-.07,0-.13-.02-.17-.06-.04-.04-.06-.1-.06-.17v-10.14c0-.07,.02-.13,.06-.17,.04-.04,.1-.06,.17-.06h7.27c.07,0,.13,.02,.17,.06,.04,.04,.06,.1,.06,.17v1.98c0,.07-.02,.13-.06,.17Z"/><path class="cls-1" d="M326.47,63.71l-1.68-3.84s-.05-.06-.09-.06h-.64c-.05,0-.08,.03-.08,.08v3.77c0,.07-.02,.13-.06,.17-.04,.04-.1,.06-.17,.06h-2.41c-.07,0-.13-.02-.17-.06-.04-.04-.06-.1-.06-.17v-10.14c0-.07,.02-.13,.06-.17,.04-.04,.1-.06,.17-.06h4.61c.69,0,1.3,.14,1.82,.42,.52,.28,.93,.68,1.22,1.19,.29,.51,.43,1.1,.43,1.76s-.17,1.25-.5,1.75c-.33,.5-.78,.86-1.36,1.1-.05,.02-.07,.06-.05,.11l1.93,3.99c.02,.06,.03,.1,.03,.11,0,.05-.02,.09-.06,.12s-.09,.05-.15,.05h-2.56c-.13,0-.22-.06-.26-.17Zm-2.48-7.91v1.77c0,.05,.03,.08,.08,.08h1.43c.32,0,.59-.09,.79-.27,.2-.18,.3-.41,.3-.69s-.1-.53-.3-.7-.47-.26-.79-.26h-1.43c-.05,0-.08,.03-.08,.08Z"/></g><g><rect class="cls-2" x="78.73" y="51.81" width="14.65" height="12.19" transform="translate(172.11 115.81) rotate(180)"/><polygon class="cls-1" points="93.34 0 34.29 0 34.29 18.59 59.55 18.59 59.55 42.67 93.34 42.67 93.34 0"/><path class="cls-2" d="M19.68,9.14V51.81h59.05V9.14H19.68ZM59.55,42.67h-25.27V18.59h25.27v24.08Z"/><polygon class="cls-1" points="34.29 18.59 .5 18.59 .5 63.7 59.55 63.7 59.55 42.67 34.29 42.67 34.29 18.59"/></g></svg>